<svg xmlns="http://www.w3.org/2000/svg" xmlns:xlink="http://www.w3.org/1999/xlink">
  <!-- 导航栏图标 -->
  <symbol id="icon-home" viewBox="0 0 24 24">
    <path d="M10 20v-6h4v6h5v-8h3L12 3 2 12h3v8z" fill="currentColor"/>
  </symbol>
  
  <symbol id="icon-orders" viewBox="0 0 24 24">
    <path d="M19 3H5c-1.1 0-2 .9-2 2v14c0 1.1.9 2 2 2h14c1.1 0 2-.9 2-2V5c0-1.1-.9-2-2-2zm-5 14H7v-2h7v2zm3-4H7v-2h10v2zm0-4H7V7h10v2z" fill="currentColor"/>
  </symbol>
  
  <symbol id="icon-stats" viewBox="0 0 24 24">
    <path d="M9 17H7V10H9V17ZM13 17H11V7H13V17ZM17 17H15V13H17V17ZM19 19H5V5H19V19ZM19 3H5C3.9 3 3 3.9 3 5V19C3 20.1 3.9 21 5 21H19C20.1 21 21 20.1 21 19V5C21 3.9 20.1 3 19 3Z" fill="currentColor"/>
  </symbol>
  
  <symbol id="icon-profile" viewBox="0 0 24 24">
    <path d="M12 12c2.21 0 4-1.79 4-4s-1.79-4-4-4-4 1.79-4 4 1.79 4 4 4zm0 2c-2.67 0-8 1.34-8 4v2h16v-2c0-2.66-5.33-4-8-4z" fill="currentColor"/>
  </symbol>
  
  <!-- 状态指示图标 -->
  <symbol id="icon-pending" viewBox="0 0 24 24">
    <path d="M12 2C6.48 2 2 6.48 2 12s4.48 10 10 10 10-4.48 10-10S17.52 2 12 2zm0 18c-4.42 0-8-3.58-8-8s3.58-8 8-8 8 3.58 8 8-3.58 8-8 8z" fill="currentColor"/>
    <path d="M12 6v6l5 3-1 2-6-3.5V6h2z" fill="currentColor"/>
  </symbol>
  
  <symbol id="icon-delivering" viewBox="0 0 24 24">
    <path d="M19.77 7.23l.01-.01-3.72-3.72L15 4.56l2.11 2.11c-.94.36-1.61 1.26-1.61 2.33 0 1.38 1.12 2.5 2.5 2.5.36 0 .69-.08 1-.21v7.21c0 .55-.45 1-1 1s-1-.45-1-1V14c0-1.1-.9-2-2-2h-1V5c0-1.1-.9-2-2-2H6c-1.1 0-2 .9-2 2v16h10v-7.5h1.5v5c0 1.38 1.12 2.5 2.5 2.5s2.5-1.12 2.5-2.5V9c0-.69-.28-1.32-.73-1.77zM12 10H6V5h6v5zm6 0c-.55 0-1-.45-1-1s.45-1 1-1 1 .45 1 1-.45 1-1 1z" fill="currentColor"/>
  </symbol>
  
  <symbol id="icon-delivered" viewBox="0 0 24 24">
    <path d="M20 12c0-1.1-.9-2-2-2V7c0-1.1-.9-2-2-2H8v14h12c0-1.1-.9-2-2-2h-2v-3h2c1.1 0 2-.9 2-2zm-6 0h-2V9h2v3zm-2 2v3h2v-3h-2z" fill="currentColor"/>
    <path d="M4 9H2v11h2c1.1 0 2-.9 2-2v-7c0-1.1-.9-2-2-2z" fill="currentColor"/>
  </symbol>
  
  <symbol id="icon-completed" viewBox="0 0 24 24">
    <path d="M12 2C6.48 2 2 6.48 2 12s4.48 10 10 10 10-4.48 10-10S17.52 2 12 2zm-2 15l-5-5 1.41-1.41L10 14.17l7.59-7.59L19 8l-9 9z" fill="currentColor"/>
  </symbol>
  
  <!-- 功能图标 -->
  <symbol id="icon-location" viewBox="0 0 24 24">
    <path d="M12 2C8.13 2 5 5.13 5 9c0 5.25 7 13 7 13s7-7.75 7-13c0-3.87-3.13-7-7-7zm0 9.5c-1.38 0-2.5-1.12-2.5-2.5s1.12-2.5 2.5-2.5 2.5 1.12 2.5 2.5-1.12 2.5-2.5 2.5z" fill="currentColor"/>
  </symbol>
  
  <symbol id="icon-phone" viewBox="0 0 24 24">
    <path d="M6.62 10.79c1.44 2.83 3.76 5.14 6.59 6.59l2.2-2.2c.27-.27.67-.36 1.02-.24 1.12.37 2.33.57 3.57.57.55 0 1 .45 1 1V20c0 .55-.45 1-1 1-9.39 0-17-7.61-17-17 0-.55.45-1 1-1h3.5c.55 0 1 .45 1 1 0 1.25.2 2.45.57 3.57.11.35.03.74-.25 1.02l-2.2 2.2z" fill="currentColor"/>
  </symbol>
  
  <symbol id="icon-add" viewBox="0 0 24 24">
    <path d="M19 13h-6v6h-2v-6H5v-2h6V5h2v6h6v2z" fill="currentColor"/>
  </symbol>
  
  <symbol id="icon-edit" viewBox="0 0 24 24">
    <path d="M3 17.25V21h3.75L17.81 9.94l-3.75-3.75L3 17.25zM20.71 7.04c.39-.39.39-1.02 0-1.41l-2.34-2.34c-.39-.39-1.02-.39-1.41 0l-1.83 1.83 3.75 3.75 1.83-1.83z" fill="currentColor"/>
  </symbol>
  
  <symbol id="icon-delete" viewBox="0 0 24 24">
    <path d="M6 19c0 1.1.9 2 2 2h8c1.1 0 2-.9 2-2V7H6v12zM19 4h-3.5l-1-1h-5l-1 1H5v2h14V4z" fill="currentColor"/>
  </symbol>
  
  <!-- 数据可视化图表 -->
  <symbol id="icon-pie-chart" viewBox="0 0 24 24">
    <path d="M11 2v20c-5.07-.5-9-4.79-9-10s3.93-9.5 9-10zm2.03 0v8.99H22c-.47-4.74-4.24-8.52-8.97-8.99zm0 11.01V22c4.74-.47 8.5-4.25 8.97-8.99h-8.97z" fill="currentColor"/>
  </symbol>
  
  <symbol id="icon-bar-chart" viewBox="0 0 24 24">
    <path d="M5 9.2h3V19H5V9.2zM10.6 5h2.8v14h-2.8V5zm5.6 8H19v6h-2.8v-6z" fill="currentColor"/>
  </symbol>
  
  <!-- 系统状态图标 -->
  <symbol id="icon-signal" viewBox="0 0 24 24">
    <path d="M2 22h20V2z" fill="none"/>
    <path d="M17 7L2 22h15V7z" fill="currentColor"/>
  </symbol>
  
  <symbol id="icon-wifi" viewBox="0 0 24 24">
    <path d="M1 9l2 2c4.97-4.97 13.03-4.97 18 0l2-2C16.93 2.93 7.08 2.93 1 9zm8 8l3 3 3-3c-1.65-1.66-4.34-1.66-6 0zm-4-4l2 2c2.76-2.76 7.24-2.76 10 0l2-2C15.14 9.14 8.87 9.14 5 13z" fill="currentColor"/>
  </symbol>
  
  <symbol id="icon-battery" viewBox="0 0 24 24">
    <path d="M15.67 4H14V2h-4v2H8.33C7.6 4 7 4.6 7 5.33v15.33C7 21.4 7.6 22 8.33 22h7.33c.74 0 1.34-.6 1.34-1.33V5.33C17 4.6 16.4 4 15.67 4z" fill="currentColor"/>
  </symbol>
  
  <!-- 圆形进度条 -->
  <symbol id="icon-circle-progress" viewBox="0 0 100 100">
    <circle cx="50" cy="50" r="45" fill="none" stroke="#e3f2fd" stroke-width="10"/>
    <circle cx="50" cy="50" r="45" fill="none" stroke="#1976D2" stroke-width="10" stroke-dasharray="282.7" stroke-dashoffset="42.4" transform="rotate(-90 50 50)"/>
    <text x="50" y="55" font-family="sans-serif" font-size="20" text-anchor="middle" fill="#1976D2" font-weight="bold">85%</text>
  </symbol>
</svg>